<svg version="1.2" xmlns="http://www.w3.org/2000/svg" viewBox="0 0 101 100" width="101" height="100"><defs><clipPath clipPathUnits="userSpaceOnUse" id="cp1"><path d="m-138-10929h1280v11587h-1280z"/></clipPath></defs><style></style><g clip-path="url(#cp1)"><path fill-rule="evenodd" d="m44.3 49.8h-4.5c-0.4 0-0.7-0.3-0.7-0.7v-7.4c0-0.4 0.3-0.7 0.7-0.7h4.5v-7.1c0-5.1 4.1-9.1 9.1-9.1h8.6c0.3 0 0.6 0.3 0.6 0.6v7.5c0 0.3-0.3 0.6-0.6 0.6h-5.1c-1.2 0-2.3 1-2.3 2.3v5.2h7.2c0.4 0 0.7 0.4 0.7 0.7l-0.7 7.5c0 0.3-0.3 0.6-0.6 0.6h-6.6v24.7c0 0.4-0.2 0.6-0.6 0.6h-9c-0.4 0-0.7-0.2-0.7-0.6zm56.4 0.2c0 27.4-22.3 49.8-49.8 49.8-27.5 0-49.9-22.4-49.9-49.8 0-27.4 22.4-49.8 49.9-49.8 27.5 0 49.8 22.4 49.8 49.8zm-49.8-43.4c-24 0-43.5 19.5-43.5 43.4 0 23.9 19.5 43.4 43.5 43.4 23.9 0 43.4-19.5 43.4-43.4 0-23.9-19.5-43.4-43.4-43.4z"/></g></svg>