<svg version="1.2" xmlns="http://www.w3.org/2000/svg" viewBox="0 0 101 100" width="101" height="100"><defs><clipPath clipPathUnits="userSpaceOnUse" id="cp1"><path d="m-420-10928h1280v11587h-1280z"/></clipPath></defs><style></style><g clip-path="url(#cp1)"><path fill-rule="evenodd" d="m66.7 36.5c0 1.7-1.3 3-2.9 3-1.7 0-3-1.3-3-3 0-1.6 1.3-3 3-3 1.6 0 2.9 1.4 2.9 3zm-3.7 13.4c0 6.9-5.6 12.5-12.5 12.5-6.9 0-12.6-5.6-12.6-12.5 0-6.9 5.7-12.5 12.6-12.5 6.9 0 12.5 5.6 12.5 12.5zm-4.5 0c0-4.4-3.6-8-8-8-4.5 0-8.1 3.6-8.1 8 0 4.4 3.6 8 8.1 8 4.4 0 8-3.6 8-8zm17.4 10.8c0 8.4-6.9 15.2-15.3 15.2h-20.9c-8.5 0-15.3-6.8-15.3-15.2v-20.9c0-8.4 6.8-15.3 15.3-15.3h20.9c8.4 0 15.3 6.9 15.3 15.3zm-5-20.6c0-5.8-4.8-10.5-10.6-10.5h-20.4c-5.8 0-10.5 4.7-10.5 10.5v20.4c0 5.8 4.7 10.5 10.5 10.5h20.4c5.8 0 10.6-4.7 10.6-10.5zm29.1 10.2c0 27.4-22.4 49.7-49.9 49.7-27.5 0-49.8-22.3-49.8-49.7 0-27.5 22.3-49.8 49.8-49.8 27.5 0 49.9 22.3 49.9 49.8zm-6.4 0c0-23.9-19.5-43.4-43.5-43.4-23.9 0-43.4 19.5-43.4 43.4 0 23.9 19.5 43.4 43.4 43.4 24 0 43.5-19.5 43.5-43.4z"/></g></svg>