<svg version="1.2" xmlns="http://www.w3.org/2000/svg" viewBox="0 0 100 100" width="100" height="100"><defs><clipPath clipPathUnits="userSpaceOnUse" id="cp1"><path d="m-277-10930h1280v11587h-1280z"/></clipPath></defs><style>.a{fill:#262626}</style><g clip-path="url(#cp1)"><path fill-rule="evenodd" class="a" d="m76.7 56.3c0 6.5-5.2 11.7-11.7 11.7h-30c-6.4 0-11.6-5.2-11.6-11.7v-13.1c0-6.4 5.2-11.6 11.6-11.6h30c6.5 0 11.7 5.2 11.7 11.6zm-17.1-7.6l-12.8-6.9c-0.5-0.3-2.4 0.1-2.4 0.7v13.5c0 0.6 1.9 1 2.4 0.7l13.4-6.6c0.5-0.3-0.1-1.1-0.6-1.4zm40.3 1c0 27.5-22.4 49.8-49.9 49.8-27.5 0-49.8-22.3-49.8-49.8 0-27.4 22.3-49.7 49.8-49.7 27.5 0 49.9 22.3 49.9 49.7zm-6.4 0c0-23.9-19.5-43.3-43.5-43.3-23.9 0-43.4 19.4-43.4 43.3 0 24 19.5 43.4 43.4 43.4 24 0 43.5-19.4 43.5-43.4z"/></g></svg>